<svg width="32" height="32" viewBox="0 0 32 32" fill="none" xmlns="http://www.w3.org/2000/svg">
<g clip-path="url(#clip0_35940_3384)">
<g clip-path="url(#clip1_35940_3384)">
<path fill-rule="evenodd" clip-rule="evenodd" d="M29.399 16.5405C29.224 16.5376 29.1266 16.4618 29.0134 16.3074L24.3298 11.0469C23.9023 10.5606 24.5422 9.79714 24.9797 10.2965L28.8803 14.6903C28.3042 7.07599 22.75 1.08095 15.9847 1.08095C10.2137 1.08095 5.06636 5.55342 3.50659 11.9778C3.32787 12.6496 2.453 12.348 2.62235 11.6776C4.3121 4.80296 9.79754 0 15.9847 0C22.8962 0 28.6379 5.86659 29.674 13.5155L31.115 8.61516C31.3056 7.95995 32.1617 8.29982 31.973 8.94565C31.7562 9.68313 29.8521 16.1508 29.7583 16.3103C29.6765 16.4496 29.5421 16.5405 29.399 16.5405ZM15.9847 20.173C14.0088 20.173 12.3972 18.3113 12.3972 16.0303C12.3972 13.7486 14.0094 11.8876 15.9847 11.8876C17.9607 11.8876 19.5723 13.7486 19.5723 16.0303C19.598 18.3113 17.9863 20.173 15.9847 20.173ZM15.9847 12.9079C14.5031 12.9079 13.307 14.2891 13.307 16C13.307 17.7109 14.5031 19.092 15.9847 19.092C17.4664 19.092 18.6625 17.7109 18.6625 16C18.6881 14.2891 17.4664 12.9079 15.9847 12.9079ZM17.3883 26.1767H14.5812C14.3469 26.1767 14.165 25.9963 14.1394 25.7264L13.7751 22.8141C13.6451 22.7542 13.5151 22.6943 13.3851 22.6344L11.3573 24.3756C11.1755 24.5257 10.9155 24.5257 10.7593 24.315L8.78394 22.034C8.62771 21.8536 8.60146 21.5534 8.73144 21.3434L10.2393 19.0018C10.1875 18.8518 10.1356 18.7017 10.0837 18.5819L7.56162 18.1612C7.3279 18.1316 7.17168 17.8913 7.17168 17.651V14.3793C7.17168 14.1087 7.3279 13.8987 7.56224 13.8684L10.0837 13.4484C10.1356 13.2983 10.1875 13.1482 10.2393 12.9981L8.73144 10.6566C8.60146 10.4466 8.62771 10.1464 8.78394 9.96599L10.7593 7.68502C10.9155 7.50462 11.1755 7.47431 11.3573 7.62513L13.3851 9.39593C13.5151 9.33604 13.6451 9.27542 13.7488 9.21553L14.1131 6.30388C14.1394 6.034 14.3469 5.8536 14.555 5.8536H17.3627C17.5964 5.8536 17.7789 6.034 17.8045 6.30388L18.1688 9.21553C18.2988 9.27542 18.4288 9.33604 18.5587 9.39593L20.6122 7.62513C20.794 7.47431 21.054 7.50462 21.2102 7.68502L23.1862 9.96599C23.3418 10.1464 23.368 10.4466 23.2381 10.6566L21.7039 13.0285C21.7564 13.1785 21.8083 13.3286 21.8601 13.4787L24.3816 13.8987C24.616 13.929 24.7716 14.1686 24.7716 14.4089V17.651C24.7716 17.9209 24.616 18.1316 24.3816 18.1612L21.8601 18.5819C21.8083 18.732 21.7558 18.8821 21.7039 19.0018L23.2381 21.3434C23.368 21.5534 23.368 21.8536 23.1856 22.034L21.2102 24.315C21.054 24.4954 20.794 24.5257 20.6122 24.3749L18.5581 22.6344C18.4281 22.6943 18.2988 22.7542 18.1682 22.8141L17.8045 25.7264C17.8045 25.9963 17.6226 26.1767 17.3883 26.1767ZM14.9711 25.1261H16.999C17.4833 21.1666 17.1102 22.3861 18.4288 21.5837C18.5844 21.4935 18.7662 21.5238 18.8962 21.6436L20.8459 23.2946L22.2763 21.6436L20.8203 19.4218C20.5747 19.0581 20.8628 18.7818 21.0802 17.9512C21.1321 17.7708 21.2883 17.6207 21.4439 17.5911L23.8361 17.1704V14.8296C20.4066 14.2696 21.4639 14.7004 20.7684 13.1778C20.6903 12.9981 20.7165 12.7882 20.8203 12.6381L22.2763 10.3867L20.8459 8.73495L18.8962 10.4163C18.5744 10.7042 18.3806 10.3715 17.6489 10.1161C17.4927 10.0562 17.3627 9.87579 17.3364 9.69612L16.999 6.93384L14.9711 6.93456C14.4575 10.8297 14.8237 9.72426 13.4889 10.4762C13.3333 10.5664 13.1514 10.5368 13.0208 10.4163L11.0973 8.73567L9.66756 10.3867C11.7729 13.6425 11.2561 12.4194 10.8374 14.0791C10.7855 14.2588 10.6293 14.4089 10.4737 14.4392L8.08154 14.8296V17.1712C11.4548 17.7636 10.4974 17.3407 11.1492 18.8821C11.2273 19.0617 11.2011 19.2724 11.0973 19.4225L9.66756 21.6436L11.0973 23.2946C13.8307 20.9061 12.8652 21.4235 14.295 21.9741C14.4512 22.034 14.5812 22.2137 14.6068 22.3941L14.9711 25.1261ZM0.465167 23.8048C0.131466 23.8048 -0.0703789 23.4361 0.0227323 23.1142L2.13367 15.9213C2.16617 15.6594 2.35989 15.4595 2.59673 15.4595C2.81232 15.4595 2.99229 15.6248 3.04728 15.8528L7.66598 20.9834C8.09341 21.4675 7.45288 22.2339 7.01607 21.7338L3.11478 17.3126C3.69094 24.9529 9.24449 30.9494 16.011 30.9494C21.0284 30.9494 25.6296 27.5571 27.7611 22.2736C28.0098 21.6429 28.8403 22.1033 28.5673 22.7246C26.3051 28.3675 21.3658 32 15.9847 32C9.11701 32 3.40473 26.2063 2.31677 18.6281L0.906977 23.4447C0.828863 23.6547 0.647015 23.8048 0.465167 23.8048Z" fill="url(#paint0_linear_35940_3384)"/>
</g>
</g>
<defs>
<linearGradient id="paint0_linear_35940_3384" x1="15.9997" y1="0" x2="15.9997" y2="32" gradientUnits="userSpaceOnUse">
<stop stop-color="#5CC6D0"/>
<stop offset="0.490196" stop-color="#A53692"/>
<stop offset="1" stop-color="#F06277"/>
</linearGradient>
<clipPath id="clip0_35940_3384">
<rect width="32" height="32" fill="white"/>
</clipPath>
<clipPath id="clip1_35940_3384">
<rect width="32" height="32" fill="white"/>
</clipPath>
</defs>
</svg>
